<mxfile host="Electron" agent="Mozilla/5.0 (X11; Linux x86_64) AppleWebKit/537.36 (KHTML, like Gecko) draw.io/26.2.2 Chrome/134.0.6998.178 Electron/35.1.2 Safari/537.36" version="26.2.2">
  <diagram name="페이지-1" id="IXDCjJej_0QvHiBd5x3G">
    <mxGraphModel dx="1166" dy="842" grid="1" gridSize="10" guides="1" tooltips="1" connect="1" arrows="1" fold="1" page="1" pageScale="1" pageWidth="4681" pageHeight="3300" math="0" shadow="0">
      <root>
        <mxCell id="0" />
        <mxCell id="1" parent="0" />
        <mxCell id="qjIamvXSgCr_BoryJL0n-1" value="" style="edgeStyle=orthogonalEdgeStyle;rounded=0;orthogonalLoop=1;jettySize=auto;html=1;strokeColor=#457B9D;fontColor=#1D3557;fillColor=#A8DADC;fontSize=15;verticalAlign=middle;" edge="1" parent="1" source="qjIamvXSgCr_BoryJL0n-2" target="qjIamvXSgCr_BoryJL0n-8">
          <mxGeometry relative="1" as="geometry" />
        </mxCell>
        <mxCell id="qjIamvXSgCr_BoryJL0n-2" value="" style="ellipse;whiteSpace=wrap;html=1;strokeColor=#457B9D;fontColor=#1D3557;fillColor=#A8DADC;fontSize=15;verticalAlign=middle;" vertex="1" parent="1">
          <mxGeometry x="190" y="440" width="40" height="40" as="geometry" />
        </mxCell>
        <mxCell id="qjIamvXSgCr_BoryJL0n-3" value="toggle_sign()" style="text;html=1;align=center;verticalAlign=middle;resizable=0;points=[];autosize=1;strokeColor=none;fillColor=none;fontColor=#1D3557;fontSize=15;" vertex="1" parent="1">
          <mxGeometry x="220" y="445" width="110" height="30" as="geometry" />
        </mxCell>
        <mxCell id="qjIamvXSgCr_BoryJL0n-4" value="" style="edgeStyle=orthogonalEdgeStyle;rounded=0;orthogonalLoop=1;jettySize=auto;html=1;strokeColor=#457B9D;fontColor=#1D3557;fillColor=#A8DADC;fontSize=15;verticalAlign=middle;" edge="1" parent="1" source="qjIamvXSgCr_BoryJL0n-8" target="qjIamvXSgCr_BoryJL0n-10">
          <mxGeometry relative="1" as="geometry" />
        </mxCell>
        <mxCell id="qjIamvXSgCr_BoryJL0n-5" value="True" style="edgeLabel;html=1;align=center;verticalAlign=middle;resizable=0;points=[];strokeColor=#457B9D;fontColor=#1D3557;fillColor=#A8DADC;fontSize=15;" vertex="1" connectable="0" parent="qjIamvXSgCr_BoryJL0n-4">
          <mxGeometry x="-0.25" y="2" relative="1" as="geometry">
            <mxPoint x="-2" y="-8" as="offset" />
          </mxGeometry>
        </mxCell>
        <mxCell id="qjIamvXSgCr_BoryJL0n-6" value="" style="edgeStyle=orthogonalEdgeStyle;rounded=0;orthogonalLoop=1;jettySize=auto;html=1;strokeColor=#457B9D;fontColor=#1D3557;fillColor=#A8DADC;fontSize=15;verticalAlign=middle;" edge="1" parent="1" source="qjIamvXSgCr_BoryJL0n-8" target="qjIamvXSgCr_BoryJL0n-15">
          <mxGeometry relative="1" as="geometry" />
        </mxCell>
        <mxCell id="qjIamvXSgCr_BoryJL0n-7" value="False" style="edgeLabel;html=1;align=center;verticalAlign=middle;resizable=0;points=[];strokeColor=#457B9D;fontColor=#1D3557;fillColor=#A8DADC;fontSize=15;" vertex="1" connectable="0" parent="qjIamvXSgCr_BoryJL0n-6">
          <mxGeometry x="-0.3167" y="1" relative="1" as="geometry">
            <mxPoint x="19" as="offset" />
          </mxGeometry>
        </mxCell>
        <mxCell id="qjIamvXSgCr_BoryJL0n-8" value="self.current_input.startswith(&quot;-&quot;)" style="rhombus;whiteSpace=wrap;html=1;fillColor=#A8DADC;strokeColor=#457B9D;fontColor=#1D3557;fontSize=15;verticalAlign=middle;" vertex="1" parent="1">
          <mxGeometry x="90" y="520" width="240" height="80" as="geometry" />
        </mxCell>
        <mxCell id="qjIamvXSgCr_BoryJL0n-9" style="edgeStyle=orthogonalEdgeStyle;rounded=0;orthogonalLoop=1;jettySize=auto;html=1;entryX=0.5;entryY=0;entryDx=0;entryDy=0;strokeColor=#457B9D;fontColor=#1D3557;fillColor=#A8DADC;fontSize=15;verticalAlign=middle;" edge="1" parent="1" source="qjIamvXSgCr_BoryJL0n-10" target="qjIamvXSgCr_BoryJL0n-18">
          <mxGeometry relative="1" as="geometry">
            <Array as="points">
              <mxPoint x="610" y="560" />
              <mxPoint x="610" y="770" />
              <mxPoint x="210" y="770" />
            </Array>
          </mxGeometry>
        </mxCell>
        <mxCell id="qjIamvXSgCr_BoryJL0n-10" value="self.current_input = self.current_input[1:]" style="whiteSpace=wrap;html=1;fillColor=#A8DADC;strokeColor=#457B9D;fontColor=#1D3557;fontSize=15;verticalAlign=middle;" vertex="1" parent="1">
          <mxGeometry x="390" y="530" width="190" height="60" as="geometry" />
        </mxCell>
        <mxCell id="qjIamvXSgCr_BoryJL0n-11" value="" style="edgeStyle=orthogonalEdgeStyle;rounded=0;orthogonalLoop=1;jettySize=auto;html=1;strokeColor=#457B9D;fontColor=#1D3557;fillColor=#A8DADC;fontSize=15;verticalAlign=middle;" edge="1" parent="1" source="qjIamvXSgCr_BoryJL0n-15" target="qjIamvXSgCr_BoryJL0n-17">
          <mxGeometry relative="1" as="geometry" />
        </mxCell>
        <mxCell id="qjIamvXSgCr_BoryJL0n-12" value="True" style="edgeLabel;html=1;align=center;verticalAlign=middle;resizable=0;points=[];strokeColor=#457B9D;fontColor=#1D3557;fillColor=#A8DADC;fontSize=15;" vertex="1" connectable="0" parent="qjIamvXSgCr_BoryJL0n-11">
          <mxGeometry x="-0.1111" y="-1" relative="1" as="geometry">
            <mxPoint y="-11" as="offset" />
          </mxGeometry>
        </mxCell>
        <mxCell id="qjIamvXSgCr_BoryJL0n-13" value="" style="edgeStyle=orthogonalEdgeStyle;rounded=0;orthogonalLoop=1;jettySize=auto;html=1;strokeColor=#457B9D;fontColor=#1D3557;fillColor=#A8DADC;fontSize=15;verticalAlign=middle;" edge="1" parent="1" source="qjIamvXSgCr_BoryJL0n-15" target="qjIamvXSgCr_BoryJL0n-18">
          <mxGeometry relative="1" as="geometry" />
        </mxCell>
        <mxCell id="qjIamvXSgCr_BoryJL0n-14" value="False" style="edgeLabel;html=1;align=center;verticalAlign=middle;resizable=0;points=[];strokeColor=#457B9D;fontColor=#1D3557;fillColor=#A8DADC;fontSize=15;" vertex="1" connectable="0" parent="qjIamvXSgCr_BoryJL0n-13">
          <mxGeometry x="-0.6037" y="-2" relative="1" as="geometry">
            <mxPoint x="22" as="offset" />
          </mxGeometry>
        </mxCell>
        <mxCell id="qjIamvXSgCr_BoryJL0n-15" value="self.current_input" style="rhombus;whiteSpace=wrap;html=1;fillColor=#A8DADC;strokeColor=#457B9D;fontColor=#1D3557;fontSize=15;verticalAlign=middle;" vertex="1" parent="1">
          <mxGeometry x="90" y="640" width="240" height="80" as="geometry" />
        </mxCell>
        <mxCell id="qjIamvXSgCr_BoryJL0n-16" style="edgeStyle=orthogonalEdgeStyle;rounded=0;orthogonalLoop=1;jettySize=auto;html=1;entryX=0.5;entryY=0;entryDx=0;entryDy=0;strokeColor=#457B9D;fontColor=#1D3557;fillColor=#A8DADC;fontSize=15;verticalAlign=middle;" edge="1" parent="1" source="qjIamvXSgCr_BoryJL0n-17" target="qjIamvXSgCr_BoryJL0n-18">
          <mxGeometry relative="1" as="geometry">
            <Array as="points">
              <mxPoint x="610" y="680" />
              <mxPoint x="610" y="770" />
              <mxPoint x="210" y="770" />
            </Array>
          </mxGeometry>
        </mxCell>
        <mxCell id="qjIamvXSgCr_BoryJL0n-17" value="self.current_input = &quot;-&quot; + self.current_input" style="whiteSpace=wrap;html=1;fillColor=#A8DADC;strokeColor=#457B9D;fontColor=#1D3557;fontSize=15;verticalAlign=middle;" vertex="1" parent="1">
          <mxGeometry x="390" y="650" width="190" height="60" as="geometry" />
        </mxCell>
        <mxCell id="qjIamvXSgCr_BoryJL0n-18" value="" style="rounded=1;whiteSpace=wrap;html=1;fillColor=#A8DADC;strokeColor=#457B9D;fontColor=#1D3557;fontSize=15;verticalAlign=middle;" vertex="1" parent="1">
          <mxGeometry x="180" y="810" width="60" height="30" as="geometry" />
        </mxCell>
      </root>
    </mxGraphModel>
  </diagram>
</mxfile>
